<svg width="114" height="136" viewBox="0 0 114 136" fill="none" xmlns="http://www.w3.org/2000/svg">
<path d="M20 43.5C20 67.5244 41.0426 87 67 87C92.9574 87 114 67.5244 114 43.5C114 19.4756 92.9574 0 67 0C41.0426 0 20 19.4756 20 43.5Z" fill="url(#paint0_radial_33_236)"/>
<path d="M0 113C0 125.703 9.17816 136 20.5 136C31.8218 136 41 125.703 41 113C41 100.297 31.8218 90 20.5 90C9.17816 90 0 100.297 0 113Z" fill="url(#paint1_radial_33_236)"/>
<defs>
<radialGradient id="paint0_radial_33_236" cx="0" cy="0" r="1" gradientUnits="userSpaceOnUse" gradientTransform="translate(57 68) rotate(90) scale(68 57)">
<stop offset="0.884615" stop-color="white"/>
<stop offset="1" stop-color="#999999"/>
</radialGradient>
<radialGradient id="paint1_radial_33_236" cx="0" cy="0" r="1" gradientUnits="userSpaceOnUse" gradientTransform="translate(20.5 113) rotate(90) scale(23 20.5)">
<stop offset="0.163462" stop-color="white"/>
<stop offset="1" stop-color="#999999"/>
</radialGradient>
</defs>
</svg>
